PathFileType	3	(X/Y/Z)	D:\minhoCalibration\240510\subject4_KPNP\preferred\preferred05.trc
DataRate	CameraRate	NumFrames	NumMarkers	Units	OrigDataRate	OrigDataStartFrame	OrigNumFrames
200.0	200.0	12	10	mm	200.0	239	88	
Frame#	Time	Left_Ankle_Outer1			Left_Ankle_Inner1			Left_Knee_Outer1			Left_Knee_Inner1			Left_Wrist1			Right_Wrist1			Right_Knee_Inner1			Right_Knee_Outer1			Right_Ankle_Inner1			Right_Ankle_Outer1			
		X1	Y1	Z1	X2	Y2	Z2	X3	Y3	Z3	X4	Y4	Z4	X5	Y5	Z5	X6	Y6	Z6	X7	Y7	Z7	X8	Y8	Z8	X9	Y9	Z9	X10	Y10	Z10	
239	1.185	-508.55499	344.68631	1698.803	-456.65771	288.57532	1628.9077	-725.92212	550.2807	1288.0458	-638.27032	508.23932	1236.6006	-578.1333	996.53625	1341.0562	-236.27303	900.26697	1379.9015	-356.77716	513.2052	1132.2189	-264.47873	512.42358	1192.6096	-473.95181	64.389023	1287.5378	-425.59839	73.843681	1315.4376
240	1.19	-509.6795	357.25455	1674.6604	-456.46295	301.22791	1605.2562	-724.66437	560.29266	1261.5341	-634.27014	519.78656	1212.1409	-573.82251	1003.873	1329.9969	-235.70752	903.05084	1382.3245	-352.34744	513.9588	1133.9373	-262.41486	513.45807	1197.2614	-472.87259	65.580673	1287.682	-424.39334	74.519615	1315.3206
241	1.195	-511.52652	370.04095	1650.6807	-456.78699	314.21481	1582.1591	-722.31946	571.05896	1234.7628	-629.39691	531.52582	1187.8878	-569.51276	1011.6465	1319.2114	-235.1942	906.03607	1384.6318	-348.9704	514.69714	1136.1925	-260.47723	514.75079	1202.2021	-471.71661	66.892448	1287.7928	-423.8237	75.824776	1315.8538
242	1.2	-514.16144	383.04739	1626.8198	-458.72525	326.61569	1560.7307	-719.24011	582.63788	1207.7712	-623.28961	544.44781	1162.975	-565.31769	1019.993	1308.5056	-234.74681	909.27686	1387.1104	-345.23645	515.91864	1138.343	-258.8757	516.23853	1206.9136	-470.64383	68.393898	1288.0183	-422.35217	76.502335	1316.1216
243	1.205	-517.85352	396.37799	1603.194	-459.89731	339.74744	1538.1993	-715.23621	594.99164	1180.4845	-617.96307	558.12982	1138.3916	-560.59747	1028.3866	1298.2268	-234.79962	912.66736	1389.9937	-342.43268	517.20203	1140.8416	-257.64746	517.82806	1211.4286	-469.44342	69.977493	1288.1306	-421.7757	78.067665	1316.9064
244	1.21	-522.32971	410.12512	1579.6321	-462.93405	353.7338	1516.0425	-710.01465	608.13489	1153.2704	-610.82965	572.10944	1113.8771	-555.42755	1036.6616	1288.2722	-235.2959	915.5116	1392.6371	-340.32077	518.66907	1143.5231	-256.38596	519.64197	1215.7582	-468.29651	71.752045	1288.1636	-420.63147	79.27356	1316.8173
245	1.215	-527.84515	424.18182	1556.1854	-466.23312	367.8364	1494.3274	-703.70129	622.13861	1126.1545	-603.32648	587.2713	1089.5653	-549.84241	1044.9695	1278.6785	-235.56367	918.79883	1395.397	-337.63388	520.34393	1145.6072	-255.13086	521.64404	1219.6805	-467.34863	73.789192	1288.1487	-420.11945	80.896294	1317.2478
246	1.22	-534.51727	438.52103	1532.8503	-471.04114	381.85565	1473.095	-696.60919	637.2912	1098.92	-594.14587	602.94598	1065.1814	-543.98901	1053.2402	1269.6084	-236.35452	922.29279	1398.3604	-335.47058	522.42847	1147.8314	-253.80197	523.8631	1223.4043	-466.32376	75.860703	1287.8252	-419.51505	82.940773	1317.6965
247	1.225	-542.46912	453.07352	1509.5547	-476.22452	396.75269	1452.0847	-688.633	653.62939	1071.7201	-584.83026	619.32275	1041.8438	-537.83014	1061.5273	1260.9891	-236.02739	925.47784	1401.1765	-333.37784	523.93927	1149.6469	-252.401	526.14642	1226.7501	-465.47092	78.059006	1287.2765	-418.95584	84.727455	1317.308
248	1.23	-551.49731	467.83725	1486.3103	-482.92657	411.78369	1431.5247	-678.82501	670.37622	1045.411	-573.21954	636.12909	1018.2029	-531.39929	1069.6143	1252.7649	-237.53523	928.39404	1404.3826	-330.32446	526.13837	1150.7899	-250.9901	528.43121	1229.8777	-464.79922	80.393784	1286.442	-418.66394	86.856621	1317.0948
249	1.235	-561.64716	482.71024	1463.0758	-490.28271	426.40717	1411.0288	-667.38348	687.95911	1019.2728	-562.17859	652.87872	996.47076	-524.29694	1077.374	1245.2117	-239.12645	930.84326	1407.8044	-328.2092	528.12042	1152.5104	-249.22926	530.74622	1232.6077	-464.09354	82.478943	1284.8788	-418.88425	89.508141	1317.266
250	1.24	-572.58582	497.86313	1439.5765	-498.72665	442.28412	1391.0803	-655.23859	706.61011	993.50281	-549.49695	670.84967	975.58698	-517.36127	1085.3125	1238.0051	-241.23813	932.99689	1411.5223	-325.02905	530.14148	1152.8235	-247.35753	533.03815	1235.114	-463.92239	85.009895	1283.3956	-418.94427	91.47287	1316.0374
